<mxfile host="Electron" modified="2023-09-18T08:11:44.264Z" agent="Mozilla/5.0 (Windows NT 10.0; Win64; x64) AppleWebKit/537.36 (KHTML, like Gecko) draw.io/21.6.8 Chrome/114.0.5735.289 Electron/25.5.0 Safari/537.36" etag="6iWTa9ScS0VtOjbgycT6" version="21.6.8" type="device">
  <diagram name="Page-1" id="16e2658f-23c8-b752-8be9-c03fbebb8bbe">
    <mxGraphModel dx="1720" dy="1016" grid="1" gridSize="10" guides="1" tooltips="1" connect="1" arrows="1" fold="1" page="1" pageScale="1" pageWidth="1100" pageHeight="850" background="none" math="0" shadow="0">
      <root>
        <mxCell id="0" />
        <mxCell id="1" parent="0" />
        <mxCell id="K9JKqmgzr4xo3lOGR5xA-1" value="" style="verticalLabelPosition=bottom;shadow=0;dashed=0;align=center;html=1;verticalAlign=top;shape=mxgraph.electrical.transistors.npn_transistor_5;" vertex="1" parent="1">
          <mxGeometry x="410" y="210" width="64" height="100" as="geometry" />
        </mxCell>
        <mxCell id="K9JKqmgzr4xo3lOGR5xA-2" value="R330" style="pointerEvents=1;verticalLabelPosition=bottom;shadow=0;dashed=0;align=center;html=1;verticalAlign=top;shape=mxgraph.electrical.resistors.resistor_1;" vertex="1" parent="1">
          <mxGeometry x="310" y="250" width="100" height="20" as="geometry" />
        </mxCell>
        <mxCell id="K9JKqmgzr4xo3lOGR5xA-4" value="9V&lt;br&gt;" style="verticalLabelPosition=bottom;shadow=0;dashed=0;align=center;fillColor=strokeColor;html=1;verticalAlign=top;strokeWidth=1;shape=mxgraph.electrical.miscellaneous.monocell_battery;rotation=-90;" vertex="1" parent="1">
          <mxGeometry x="690" y="230" width="100" height="60" as="geometry" />
        </mxCell>
        <mxCell id="K9JKqmgzr4xo3lOGR5xA-5" value="" style="endArrow=none;html=1;rounded=0;" edge="1" parent="1">
          <mxGeometry width="50" height="50" relative="1" as="geometry">
            <mxPoint x="474" y="210" as="sourcePoint" />
            <mxPoint x="560" y="210" as="targetPoint" />
          </mxGeometry>
        </mxCell>
        <mxCell id="K9JKqmgzr4xo3lOGR5xA-7" value="M" style="verticalLabelPosition=middle;shadow=0;dashed=0;align=center;html=1;verticalAlign=middle;strokeWidth=1;shape=ellipse;aspect=fixed;fontSize=35;" vertex="1" parent="1">
          <mxGeometry x="560" y="180" width="60" height="60" as="geometry" />
        </mxCell>
        <mxCell id="K9JKqmgzr4xo3lOGR5xA-8" value="" style="endArrow=none;html=1;rounded=0;entryX=1;entryY=0.5;entryDx=0;entryDy=0;entryPerimeter=0;exitX=1;exitY=0.5;exitDx=0;exitDy=0;" edge="1" parent="1" source="K9JKqmgzr4xo3lOGR5xA-7" target="K9JKqmgzr4xo3lOGR5xA-4">
          <mxGeometry width="50" height="50" relative="1" as="geometry">
            <mxPoint x="650" y="210" as="sourcePoint" />
            <mxPoint x="700" y="160" as="targetPoint" />
          </mxGeometry>
        </mxCell>
        <mxCell id="K9JKqmgzr4xo3lOGR5xA-11" value="" style="endArrow=none;html=1;rounded=0;entryX=0;entryY=0.5;entryDx=0;entryDy=0;entryPerimeter=0;" edge="1" parent="1" target="K9JKqmgzr4xo3lOGR5xA-4">
          <mxGeometry width="50" height="50" relative="1" as="geometry">
            <mxPoint x="474" y="310" as="sourcePoint" />
            <mxPoint x="524" y="260" as="targetPoint" />
          </mxGeometry>
        </mxCell>
        <mxCell id="K9JKqmgzr4xo3lOGR5xA-12" value="" style="pointerEvents=1;fillColor=strokeColor;verticalLabelPosition=bottom;shadow=0;dashed=0;align=center;html=1;verticalAlign=top;shape=mxgraph.electrical.diodes.diode;" vertex="1" parent="1">
          <mxGeometry x="540" y="100" width="100" height="60" as="geometry" />
        </mxCell>
        <mxCell id="K9JKqmgzr4xo3lOGR5xA-14" value="" style="endArrow=none;html=1;rounded=0;exitX=1;exitY=0;exitDx=0;exitDy=0;exitPerimeter=0;" edge="1" parent="1" source="K9JKqmgzr4xo3lOGR5xA-1">
          <mxGeometry width="50" height="50" relative="1" as="geometry">
            <mxPoint x="480" y="210" as="sourcePoint" />
            <mxPoint x="540" y="130" as="targetPoint" />
            <Array as="points">
              <mxPoint x="474" y="130" />
            </Array>
          </mxGeometry>
        </mxCell>
        <mxCell id="K9JKqmgzr4xo3lOGR5xA-16" value="" style="endArrow=none;html=1;rounded=0;entryX=1;entryY=0.5;entryDx=0;entryDy=0;entryPerimeter=0;" edge="1" parent="1" target="K9JKqmgzr4xo3lOGR5xA-12">
          <mxGeometry width="50" height="50" relative="1" as="geometry">
            <mxPoint x="740" y="210" as="sourcePoint" />
            <mxPoint x="790" y="160" as="targetPoint" />
            <Array as="points">
              <mxPoint x="740" y="130" />
            </Array>
          </mxGeometry>
        </mxCell>
        <mxCell id="K9JKqmgzr4xo3lOGR5xA-17" value="" style="rounded=0;whiteSpace=wrap;html=1;" vertex="1" parent="1">
          <mxGeometry x="130" y="240" width="120" height="130" as="geometry" />
        </mxCell>
        <mxCell id="K9JKqmgzr4xo3lOGR5xA-18" value="" style="endArrow=none;html=1;rounded=0;exitX=0.984;exitY=0.542;exitDx=0;exitDy=0;exitPerimeter=0;" edge="1" parent="1">
          <mxGeometry width="50" height="50" relative="1" as="geometry">
            <mxPoint x="250.07999999999998" y="310.46000000000004" as="sourcePoint" />
            <mxPoint x="476" y="310" as="targetPoint" />
          </mxGeometry>
        </mxCell>
        <mxCell id="K9JKqmgzr4xo3lOGR5xA-19" value="" style="endArrow=none;html=1;rounded=0;exitX=0.992;exitY=0.149;exitDx=0;exitDy=0;exitPerimeter=0;" edge="1" parent="1" source="K9JKqmgzr4xo3lOGR5xA-17">
          <mxGeometry width="50" height="50" relative="1" as="geometry">
            <mxPoint x="260" y="310" as="sourcePoint" />
            <mxPoint x="310" y="260" as="targetPoint" />
          </mxGeometry>
        </mxCell>
        <mxCell id="K9JKqmgzr4xo3lOGR5xA-20" value="&lt;font style=&quot;font-size: 6px;&quot;&gt;9&lt;/font&gt;" style="text;html=1;strokeColor=none;fillColor=none;align=center;verticalAlign=middle;whiteSpace=wrap;rounded=0;" vertex="1" parent="1">
          <mxGeometry x="223" y="281" width="60" height="30" as="geometry" />
        </mxCell>
        <mxCell id="K9JKqmgzr4xo3lOGR5xA-21" value="GND" style="text;html=1;strokeColor=none;fillColor=none;align=center;verticalAlign=middle;whiteSpace=wrap;rounded=0;" vertex="1" parent="1">
          <mxGeometry x="250" y="290" width="60" height="30" as="geometry" />
        </mxCell>
        <mxCell id="K9JKqmgzr4xo3lOGR5xA-22" value="GPIO4" style="text;html=1;strokeColor=none;fillColor=none;align=center;verticalAlign=middle;whiteSpace=wrap;rounded=0;" vertex="1" parent="1">
          <mxGeometry x="249" y="238" width="60" height="30" as="geometry" />
        </mxCell>
        <mxCell id="K9JKqmgzr4xo3lOGR5xA-23" value="&lt;font style=&quot;font-size: 6px;&quot;&gt;7&lt;/font&gt;" style="text;html=1;strokeColor=none;fillColor=none;align=center;verticalAlign=middle;whiteSpace=wrap;rounded=0;" vertex="1" parent="1">
          <mxGeometry x="224" y="226" width="60" height="30" as="geometry" />
        </mxCell>
        <mxCell id="K9JKqmgzr4xo3lOGR5xA-24" value="RASPI" style="text;html=1;strokeColor=none;fillColor=none;align=center;verticalAlign=middle;whiteSpace=wrap;rounded=0;" vertex="1" parent="1">
          <mxGeometry x="160" y="270" width="60" height="30" as="geometry" />
        </mxCell>
      </root>
    </mxGraphModel>
  </diagram>
</mxfile>
